<?xml version="1.0" encoding="utf-8"?>
<!-- Generator: Adobe Illustrator 15.0.0, SVG Export Plug-In . SVG Version: 6.00 Build 0)  -->
<!DOCTYPE svg PUBLIC "-//W3C//DTD SVG 1.1//EN" "http://www.w3.org/Graphics/SVG/1.1/DTD/svg11.dtd">
<svg version="1.1" id="Layer_1" xmlns="http://www.w3.org/2000/svg" xmlns:xlink="http://www.w3.org/1999/xlink" x="0px" y="0px"
	 width="820px" height="252px" viewBox="0 0 820 252" enable-background="new 0 0 820 252" xml:space="preserve">
<path fill-rule="evenodd" clip-rule="evenodd" fill="#EE386A" d="M651.265,232.113c64.886,14.455,132.608-19.333,153.006-77.302
	c20.959-59.566-15.963-122.177-82.444-139.767C664.243-0.21,603.377,23.292,574.466,68.55
	c18.298-24.004,46.026-40.854,76.563-47.269l0.443,1.655l7.834,6.533l8.247-0.355l12.061,6.681l1.153,4.612l-1.42,4.375l0.769,5.38
	h4.612l3.104,10.258l-5.144,10.021l8.454,26.162l5.646,1.803l1.804,7.184l9.37,12.948l4.73,2.069l0.798,6.799l6.414,2.926
	l-1.803,5.794l-3.725,3.074l0.649,19.748l5.114,5.646l-11.794,25.659l-3.606,14.13l4.375,12.062l3.843-2.572l-1.656-4.493
	l4.228-2.689l1.271-6.682l29.501-19.333l2.957-8.336l4.611-2.69l10.611-15.253l-8.839-13.716l-11.558-3.902l-11.47-7.568
	l-8.483-1.183l-6.799-2.808v-6.947l-3.606-1.921l2.068-4.877l-1.152-3.192l-4.493,1.152l-3.488-6.681l5.026-4.612l9.223,3.991
	l1.803,6.267l2.572,0.65v-5.646l8.453-4.375l1.035-4.346l2.956-0.768l2.69,1.655l1.655-5.114l17.973-2.188l-7.449-20.131
	l-13.065-9.519l-1.567,7.568l0.769,1.803l-3.576,5.262l-3.459-9.489l-5.794-4.612l-2.809-4.611l4.878-3.489l9.104,2.572l4.109-7.686
	l4.227,1.655l-2.809,6.03l8.957,8.603l7.716-4.109l-5.823-14.78c32.931,26.043,46.794,68.701,31.512,110.412
	C765.961,205.567,708.465,238.144,651.265,232.113L651.265,232.113z"/>
<path fill="#FFFFFF" d="M159.497,80.759H149.18c-0.65,0-1.271,0.147-1.892,0.443c-0.621,0.296-1.153,0.709-1.626,1.183
	c-0.502,0.502-0.887,1.064-1.153,1.685c-0.296,0.65-0.414,1.3-0.414,1.951v8.04h15.401V80.759z M159.497,117.948V99.354h-15.401
	v18.594h-15.519V86.021c0-2.779,1.035-5.203,3.104-7.332c2.069-2.158,4.493-3.222,7.242-3.222h36.153v42.48H159.497z
	 M211.346,86.021c0-0.651-0.147-1.301-0.443-1.951c-0.266-0.621-0.651-1.183-1.153-1.685c-0.473-0.473-1.034-0.887-1.626-1.183
	c-0.65-0.296-1.271-0.443-1.951-0.443h-9.282v15.904h9.282c0.68,0,1.3-0.148,1.951-0.443c0.592-0.295,1.153-0.68,1.626-1.182
	c0.502-0.474,0.887-1.035,1.153-1.656c0.295-0.621,0.443-1.301,0.443-2.01V86.021z M212.322,117.948v-10.643
	c0-1.419-0.502-2.631-1.507-3.665c-1.035-1.064-2.247-1.597-3.606-1.597h-10.316v15.904h-15.49v-42.48h35.088
	c2.69,0,5.055,1.093,7.154,3.251c2.099,2.158,3.163,4.582,3.163,7.302v3.724c0,4.109-1.833,7.213-5.469,9.312
	c1.833,0.887,3.399,2.217,4.641,3.991c1.271,1.774,1.922,3.754,1.922,5.883v9.017H212.322z M290.54,117.948V86.021
	c0-0.651-0.119-1.301-0.414-1.922c-0.266-0.65-0.65-1.212-1.153-1.714c-0.473-0.473-1.005-0.887-1.625-1.183
	c-0.621-0.296-1.242-0.443-1.892-0.443h-2.661c-0.65,0-1.301,0.147-1.892,0.443c-0.621,0.296-1.183,0.709-1.656,1.183
	c-0.502,0.502-0.857,1.064-1.153,1.714c-0.266,0.621-0.414,1.271-0.414,1.922v31.926h-15.46V86.021c0-0.651-0.148-1.301-0.443-1.922
	c-0.296-0.65-0.68-1.212-1.182-1.714c-0.474-0.473-1.005-0.887-1.656-1.183c-0.621-0.296-1.242-0.443-1.921-0.443h-2.602
	c-0.65,0-1.301,0.147-1.921,0.443c-0.591,0.296-1.152,0.709-1.626,1.183c-0.473,0.502-0.857,1.064-1.152,1.714
	c-0.296,0.621-0.414,1.271-0.414,1.922v31.926h-15.519V86.021c0-2.779,1.034-5.203,3.133-7.332c2.069-2.158,4.464-3.222,7.242-3.222
	h51.583c2.69,0,5.084,1.064,7.183,3.163c2.099,2.247,3.164,4.701,3.164,7.391v31.926H290.54z M343.187,80.759H332.87
	c-0.65,0-1.301,0.147-1.921,0.443c-0.591,0.296-1.153,0.709-1.626,1.183c-0.473,0.502-0.857,1.064-1.152,1.685
	c-0.296,0.65-0.415,1.3-0.415,1.951v8.04h15.431V80.759z M343.187,117.948V99.354h-15.431v18.594h-15.519V86.021
	c0-2.779,1.035-5.203,3.133-7.332c2.069-2.158,4.464-3.222,7.213-3.222h36.153v42.48H343.187z M373.841,117.948
	c-2.779,0-5.203-1.064-7.272-3.164c-2.04-2.128-3.075-4.641-3.075-7.479V86.021c0-2.779,1.035-5.203,3.104-7.332
	c2.069-2.158,4.493-3.222,7.242-3.222h30.95v5.292h-20.692c-0.65,0-1.3,0.147-1.892,0.443c-0.621,0.296-1.182,0.709-1.655,1.183
	c-0.473,0.502-0.858,1.064-1.153,1.714c-0.295,0.621-0.443,1.271-0.443,1.922v21.254c0,0.709,0.148,1.39,0.443,2.04
	c0.295,0.65,0.68,1.212,1.153,1.715c0.473,0.473,1.034,0.887,1.655,1.182c0.592,0.295,1.242,0.443,1.892,0.443h20.692v5.292H373.841
	z M420.103,117.948c-2.778,0-5.202-1.064-7.271-3.164c-2.04-2.128-3.074-4.641-3.074-7.479V86.021c0-2.779,1.034-5.203,3.103-7.332
	c2.07-2.158,4.493-3.222,7.242-3.222h30.948v5.292h-20.692c-0.649,0-1.3,0.147-1.922,0.443c-0.591,0.296-1.151,0.709-1.624,1.183
	c-0.474,0.502-0.858,1.064-1.154,1.685c-0.295,0.65-0.442,1.3-0.442,1.951v8.04h20.691v5.292h-20.691v7.922
	c0,0.709,0.147,1.39,0.442,2.04c0.296,0.65,0.681,1.212,1.154,1.715c0.473,0.473,1.033,0.887,1.624,1.182
	c0.622,0.295,1.272,0.443,1.922,0.443h20.692v5.292H420.103z M502.634,107.305c0,2.779-1.064,5.262-3.162,7.42
	c-2.1,2.158-4.464,3.223-7.184,3.223h-25.808c-2.777,0-5.202-1.064-7.271-3.164c-2.041-2.128-3.075-4.641-3.075-7.479V75.468h15.52
	v31.808c0,0.709,0.118,1.39,0.414,2.04c0.296,0.65,0.68,1.212,1.153,1.715c0.473,0.473,1.034,0.887,1.625,1.182
	c0.621,0.295,1.271,0.443,1.922,0.443h5.173c1.359,0,2.571-0.532,3.605-1.625c1.006-1.124,1.538-2.365,1.538-3.754V75.468h15.549
	V107.305z M537.9,80.759v37.188h-15.548V80.759h-15.461v-5.292h46.498v5.292H537.9z M557.706,117.948v-42.48h15.49v42.48H557.706z
	 M589.72,117.948c-2.749,0-5.203-1.064-7.242-3.164c-2.07-2.128-3.075-4.641-3.075-7.479V86.021c0-2.779,1.034-5.203,3.104-7.332
	c2.068-2.158,4.493-3.222,7.213-3.222h30.949v5.292h-20.662c-0.65,0-1.302,0.147-1.922,0.443c-0.592,0.296-1.153,0.709-1.626,1.183
	c-0.473,0.502-0.856,1.064-1.152,1.714c-0.296,0.621-0.443,1.271-0.443,1.922v21.254c0,0.709,0.147,1.39,0.443,2.04
	c0.296,0.65,0.68,1.212,1.152,1.715c0.473,0.473,1.034,0.887,1.626,1.182c0.62,0.295,1.271,0.443,1.922,0.443h20.662v5.292H589.72z
	 M656.704,80.759h-10.286c-0.65,0-1.301,0.147-1.921,0.443c-0.621,0.296-1.154,0.709-1.627,1.183
	c-0.502,0.502-0.887,1.064-1.152,1.685c-0.296,0.65-0.414,1.3-0.414,1.951v8.04h15.4V80.759z M656.704,117.948V99.354h-15.4v18.594
	h-15.52V86.021c0-2.779,1.035-5.203,3.104-7.332c2.07-2.158,4.493-3.222,7.243-3.222h36.152v42.48H656.704z"/>
<path fill-rule="evenodd" clip-rule="evenodd" fill="#FFFFFF" d="M46.28,74.551h52.056c7.952,0,14.573,4.996,15.579,11.411h-67.28
	c-6.71,0-12.563,2.572-17.588,7.715c-5.055,5.143-7.538,10.997-7.538,17.678v76.888h37.661v-44.785h50.194v-12.711H59.168v-19.392
	c0-1.597,0.325-3.133,1.034-4.671c0.68-1.478,1.597-2.867,2.779-4.05c1.183-1.212,2.483-2.158,3.991-2.868
	c1.478-0.739,3.044-1.124,4.611-1.124h42.449v83.186c0,7.184-7.065,13.065-15.697,13.065H23.873
	c-8.632,0-15.697-5.882-15.697-13.065v-71.065C8.176,103.581,15.507,74.551,46.28,74.551L46.28,74.551z"/>
<path fill="#EE386A" d="M216.46,194.895v-48.687c0-1.005-0.207-1.981-0.65-2.926c-0.443-0.976-1.035-1.833-1.774-2.601
	c-0.739-0.739-1.567-1.361-2.512-1.804c-0.946-0.473-1.951-0.709-2.956-0.709h-4.08c-1.035,0-2.01,0.236-2.926,0.709
	c-0.976,0.443-1.803,1.065-2.572,1.804c-0.739,0.768-1.3,1.625-1.744,2.601c-0.444,0.945-0.651,1.921-0.651,2.926v48.687H172.74
	v-48.687c0-1.005-0.236-1.981-0.709-2.926c-0.444-0.976-1.035-1.833-1.773-2.601c-0.769-0.739-1.597-1.361-2.572-1.804
	c-0.946-0.473-1.951-0.709-2.957-0.709h-4.05c-1.005,0-1.98,0.236-2.926,0.709c-0.946,0.443-1.774,1.065-2.542,1.804
	c-0.739,0.768-1.33,1.625-1.744,2.601c-0.443,0.945-0.65,1.921-0.65,2.926v48.687h-23.944v-48.687c0-4.227,1.596-7.952,4.789-11.204
	c3.222-3.251,6.917-4.878,11.173-4.878h79.637c4.139,0,7.833,1.626,11.056,4.818c3.281,3.4,4.907,7.154,4.907,11.263v48.687H216.46z
	 M321.667,178.666c0,4.228-1.626,8.012-4.907,11.353c-3.193,3.252-6.858,4.877-11.056,4.877h-39.789
	c-4.315,0-8.041-1.625-11.233-4.818c-3.163-3.252-4.759-7.065-4.759-11.411v-48.539h23.944v48.51c0,1.095,0.207,2.1,0.65,3.104
	c0.414,0.975,1.005,1.832,1.773,2.602c0.739,0.739,1.566,1.359,2.513,1.803c0.946,0.473,1.922,0.709,2.926,0.709h8.011
	c2.128,0,3.961-0.827,5.557-2.512c1.567-1.686,2.365-3.577,2.365-5.706v-48.51h24.003V178.666z M378.955,194.895v-48.687
	c0-1.005-0.236-1.981-0.65-2.926c-0.384-0.976-0.976-1.833-1.685-2.601c-0.709-0.739-1.537-1.361-2.512-1.804
	c-0.946-0.473-1.981-0.709-3.075-0.709h-15.904v56.728h-23.914v-64.769h55.781c4.227,0,7.892,1.626,11.055,4.818
	c3.281,3.4,4.907,7.154,4.907,11.263v48.687H378.955z M460.245,146.208c0-1.005-0.236-1.981-0.65-2.926
	c-0.414-0.976-0.976-1.833-1.686-2.601c-0.709-0.739-1.537-1.361-2.512-1.804c-0.946-0.473-1.981-0.709-3.075-0.709h-15.903v48.687
	h15.903c2.1,0,3.962-0.827,5.558-2.512c1.567-1.686,2.365-3.577,2.365-5.706V146.208z M484.248,178.666
	c0,4.228-1.626,8.012-4.907,11.353c-3.192,3.252-6.887,4.877-11.055,4.877h-55.779v-64.769h55.779c4.227,0,7.892,1.626,11.055,4.818
	c3.281,3.4,4.907,7.154,4.907,11.263V178.666z M493.588,194.895v-64.769h23.915v64.769H493.588z M574.999,138.167h-15.933
	c-1.005,0-1.981,0.236-2.927,0.709c-0.946,0.443-1.803,1.065-2.542,1.804c-0.739,0.768-1.331,1.625-1.744,2.572
	c-0.474,0.975-0.65,1.951-0.65,2.956v12.298h23.796V138.167z M574.999,194.895v-28.378h-23.796v28.378h-23.944v-48.687
	c0-4.227,1.597-7.952,4.789-11.204c3.223-3.251,6.917-4.878,11.174-4.878h55.781v64.769H574.999z M624.512,194.895
	c-4.286,0-8.011-1.625-11.203-4.818c-3.163-3.252-4.729-7.065-4.729-11.411v-48.539h23.915v48.51c0,1.095,0.177,2.1,0.649,3.104
	c0.414,0.975,1.005,1.832,1.745,2.602c0.738,0.739,1.596,1.359,2.542,1.803c0.945,0.473,1.921,0.709,2.927,0.709h31.925v8.041
	H624.512z"/>
<path fill="#FFFFFF" d="M623.153,224.871c-1.389,0-2.602-0.502-3.636-1.537c-1.005-1.035-1.508-2.246-1.508-3.637v-10.346
	c0-1.33,0.503-2.513,1.537-3.548c1.034-1.034,2.247-1.566,3.606-1.566h15.489v2.572h-10.346c-0.325,0-0.65,0.059-0.945,0.207
	c-0.296,0.147-0.592,0.354-0.828,0.591s-0.443,0.503-0.591,0.827c-0.148,0.296-0.207,0.621-0.207,0.917v10.346
	c0,0.355,0.059,0.681,0.207,0.977c0.147,0.325,0.354,0.591,0.591,0.827c0.236,0.267,0.532,0.443,0.828,0.592
	c0.295,0.147,0.62,0.206,0.945,0.206h10.346v2.572H623.153z M646.151,222.298c0,0.71-0.266,1.33-0.798,1.804
	c-0.502,0.532-1.094,0.769-1.804,0.769c-0.709,0-1.3-0.236-1.832-0.739c-0.473-0.503-0.739-1.123-0.739-1.833
	c0-0.709,0.267-1.329,0.739-1.832c0.532-0.502,1.123-0.77,1.832-0.77c0.71,0,1.302,0.268,1.804,0.77
	C645.885,220.969,646.151,221.589,646.151,222.298L646.151,222.298z M664.508,206.809h-5.173c-0.325,0-0.65,0.059-0.946,0.207
	c-0.295,0.147-0.591,0.354-0.827,0.591c-0.237,0.236-0.415,0.503-0.563,0.827c-0.147,0.296-0.207,0.621-0.207,0.917v3.932h7.716
	V206.809z M664.508,224.871v-9.045h-7.716v9.045h-7.744v-15.52c0-1.33,0.503-2.513,1.537-3.548c1.034-1.034,2.247-1.566,3.636-1.566
	h18.062v20.634H664.508z"/>
</svg>
