<?xml version="1.0" encoding="utf-8"?>
<!-- Generator: Adobe Illustrator 22.0.1, SVG Export Plug-In . SVG Version: 6.00 Build 0)  -->
<svg version="1.1" id="Capa_1" xmlns="http://www.w3.org/2000/svg" xmlns:xlink="http://www.w3.org/1999/xlink" x="0px" y="0px"
	 viewBox="0 0 735.7 138.8" style="enable-background:new 0 0 735.7 138.8;" xml:space="preserve">
<style type="text/css">
	.st0{fill:#FFFFFF;}
</style>
<g>
	<path class="st0" d="M548.7,5.1H485c-17.5,0-31.9,14.3-31.9,31.8v65.1c0,17.5,14.3,31.8,31.9,31.8h63.7c17.5,0,31.9-14.3,31.9-31.8
		V36.9C580.5,19.4,566.2,5.1,548.7,5.1z M509.7,77.8c0,0-9.7,17-14.5,44.2c0,0-18.2-22.4-11.3-46.7c6.8-24.3,30.6-29.1,30.6-29.1
		s-34.1,17.4-21.2,52c0,0,1.9-14.1,7.5-25.7c4.5-9.2,12.6-16.1,14.8-17.7c0,0-7.5,16.4,4,29.1C519.6,84,514.7,84.2,509.7,77.8z
		 M539.9,103.4c-1-4.1-4.3-8-7.1-10c-2.7-2-7.9-6.4-7.9-6.4c0.3-6.1,2-8.1,2-8.1c1,3.9,4.8,9,10.7,15.8c5.9,6.8,6,13.5,6,13.5
		S540.9,107.6,539.9,103.4z M560.2,107.6c0,0-0.6,1-0.9,3.2c-0.3,2.2-5.2,6.9-9,2.9l1.4-7.3c1.7,1.8,2.4,2.4,2.4,3.6
		c0,0,1.9-1.4,0-4.1c-1.9-2.7-1.5-5.5-1.5-5.5s-0.3-18-7.5-32.1c0,0,0.3,4.9-1,9.2c0,0-4.4-9.5-7.2-12.4c0,0-2.8,13.5,3.1,24.3
		c0,0-6-4.5-10.4-22.2c0,0,4.1-0.2,4.9-3.1c0,0-5,1.9-6.6-2.9c0,0,2.5-2.9,6.6,0c0,0,1.4-5.9-6.6-4.3c0,0-0.5-4.1,3.5-8.2
		c3.9-4.1,3.7-4.2,3.8-5.1c0.1-0.9-6.9-1.4-14.1,3.3c0,0,0.6-3.7,4.2-7.7c0,0-38.3-9-56,19.8c0,0,3.2-30,53.9-30.8
		c0,0-0.2,5.6,2.5,8c0,0-1.7-6.1,1.1-11.1c2.7-4.9,5.7-8.2,5.7-8.2s1.8,2,0.8,10.8c0,0,3.6-0.7,5.8,0.7c0,0,9.2-8.4,13.5-11.5
		c0,0,1.5,11-5.6,17c0,0,0.1,2.3,1.9,5.6c1.8,3.3,6,10.1,6.8,13c0.9,2.9-1.9,7.8-2,12.6c-0.1,4.8,1.7,16.1,5.9,27.3
		C563.7,103.8,563.2,101.8,560.2,107.6z"/>
	<path class="st0" d="M37.5,5.1H101c17.5,0,31.8,14.3,31.8,31.8v65.1c0,17.5-14.3,31.8-31.8,31.8H37.5c-17.5,0-31.8-14.3-31.8-31.8
		V36.9C5.7,19.4,20,5.1,37.5,5.1L37.5,5.1z M25.9,65.6c-6.5,29.3,5.3,43.5,27.6,48.8c-4.4-6.7-8.1-13.2-6.4-20.2
		c6.4,9.3,16.1,14.6,25.1,13.8c9.6-0.9,11.7-5,22.4-6.4c7.9-1,16.8,3.1,19.7-15.2c-4.2,1.7-6.1-2.6-3.3-5.1
		C93.7,70.4,87,51.2,61.4,43.7c0.2,7-2.9,8-4.5,6.9c-1.2-0.8-1.6-2.6-0.2-5.9c-6.6-6.2-12-13-16.5-20.4c-0.1,8.1,1.6,15.9,4.7,23.3
		c-7.2-2.3-14-2.6-20,2c1.5,4.9,4.3,8,7.9,9.7c-0.4-2.8-0.5-6.7,1.2-7.2c3.5-1,9.8,5,9.2,9.8C42.5,66.3,34.7,67.1,25.9,65.6
		L25.9,65.6z M103.4,84.5c-2.5,1.1-6.8-1.1-8.3-0.3C94.6,94.2,109.1,91.8,103.4,84.5L103.4,84.5z M78.5,68.4
		c-3.6-1.5-7.5-5.5-11.4-3.1c-0.9,6.6,3.8,6.7,11.3,6.6C79.6,71.9,79.9,69,78.5,68.4L78.5,68.4z M76.1,27.6
		c-0.8,5.3-2.7,9.8-5.5,13.5c2.8,1.2,5.4,2.5,7.7,4C78.9,39.2,78.5,33.4,76.1,27.6L76.1,27.6z M87.8,52.1c0.6-2.2,0.8-4.4,0.3-6.5
		c-1.7,1.2-3.7,1.9-5.8,2.2C84.2,49.1,86.1,50.6,87.8,52.1z"/>
	<path class="st0" d="M335.6,5.1h63.6c17.5,0,31.8,14.3,31.8,31.8v65.1c0,17.5-14.3,31.8-31.8,31.8h-63.6
		c-17.5,0-31.8-14.3-31.8-31.8V36.9C303.8,19.4,318.1,5.1,335.6,5.1L335.6,5.1z M326.3,76.7c-2,20.5,7.3,30,23.7,32.5
		c-4.4-7.1-6-12.1-5.3-21.3c4.4,10.5,7.8,5.6,14,15c5.7,8.6,11.9,5.8,23.7,12.9c4.7,2.8,10.5-0.4,13-6.5c2-4.9,1.3-11.8-1.4-18
		c-1.7-3.8-3.6-7.4-4.3-11.8c2.1-5.6,2.5-11.1,2.3-16.2c-1.3-2.8-3.4-5.1-6.1-7.6c-5.6-17.7-16.5-28.7-32.1-33.8
		c6.6,5.5,11.2,12,13.3,19.7c3.7,2.7,6.4,6,8.1,10.2c-6.3-3.5-13.1-5.4-20.5-5C347.6,37,339.5,31,330.6,28
		c9,12.7,16.6,26.2,20.4,41.5C342.9,75.4,334.6,76.8,326.3,76.7L326.3,76.7z M380.7,102.5c-0.6,3.3,0.7,5.8,3.7,7.7
		c3-0.5,4.1-2.1,4-4.5C385.7,105.7,383.1,104.7,380.7,102.5L380.7,102.5z M361.8,77.1c3.2,1.1,6.4,3.1,9.5,5.6
		c-0.5-6-3.1-10.5-8.9-12.7C361,72.3,361,74.6,361.8,77.1L361.8,77.1z M338.4,56.7c-9.9,3.9-14.4,4.5-15.2,9.7
		c6.9,2.1,12.9,2.6,19.9,0.4C342.7,62.4,342,59.8,338.4,56.7L338.4,56.7z M397.8,56.9c-1,3.8-0.5,7.2,1.4,10.2
		c4.3,1.2,8.4,0.2,12.4-3.1C407.8,60.5,403.3,57.9,397.8,56.9z"/>
	<g>
		<path class="st0" d="M703.1,75.1l-5.8-10.7C694.3,67.7,696.4,80.7,703.1,75.1z"/>
		<path class="st0" d="M697.9,4.9h-63.6c-17.5,0-31.8,14.3-31.8,31.8v65.1c0,17.5,14.3,31.8,31.8,31.8h63.6
			c17.5,0,31.8-14.3,31.8-31.8V36.7C729.7,19.2,715.4,4.9,697.9,4.9z M701.4,92.9c0.7,8.4-7,14.8-17.5,7.4c0.8-4.3,1.4-9.1,1.5-14.6
			c-2.4,15.7-8.3,28.1-17.3,37.6c9.7-27.7-47.1-19.4-48.6-60.5c18.4,23.1,27.3-15,7.2-38.2c10.6-7.8,18.1-10.8,31.8-8.9
			c6.2,4,11.2,9.2,15.2,15.4c3.9-1.8,8.3-2.7,12.8-2.4c-3.3,0.9-5.2,1.9-7.1,3c-5.6,3.3-9,9.2-9,17.4c0,13,14.7,18.6,18.1,11.8
			c3.5-6.8-5.3-8.2-6.5-14.1c-1-4.9,1-10.3,4.1-14.4l10.6,1C710,51.3,722.4,74.6,701.4,92.9z"/>
	</g>
	<g>
		<path class="st0" d="M260.9,97.6l0.1-0.1c2.2,6.1-3.4,8.8-3.4,8.8C254.8,100,260.9,97.6,260.9,97.6z"/>
		<path class="st0" d="M231.1,72.6c0,0,4.5,1,5.1,5.7c0,0-5.4-1.4-13.3,0C222.9,78.3,223.8,73.8,231.1,72.6z"/>
		<path class="st0" d="M154.4,36.9v64.9c0,17.5,14.3,31.7,31.8,31.7h63.5c17.5,0,31.8-14.3,31.8-31.7V36.9
			c0-17.5-14.3-31.8-31.8-31.8h-63.5C168.7,5.1,154.4,19.4,154.4,36.9z M235.2,53.4c0,0-6.1-4.6-12.9-6.6c0,0,9.7-6.8,11.7-17
			C236,19.7,245.1,30.2,235.2,53.4z M167.1,72c0-25.6,12.4-32.7,12.4-32.7S161,85.6,196.6,71.2c0,0-22.3,7.1-17.6-15.7
			c1.9-9.1,9.3-14.2,9.2-21.1c0,0,23.2,11.9,16.4,29.9c0,0,10.3-7.6,0.9-19.2c0,0,25.4,4.7,35.4,19.3c10,14.7,5.3,17.9,23.2,27.8
			c0,0,8,2,2.7,8.7c-5.3,6.7-2.4,11.2-18.7,11.1c0,0-9.9,2.8-29.8-2c0,0-15.1,4.6-26.2-1.7C192.1,108.1,167.1,101.9,167.1,72z"/>
	</g>
</g>
</svg>
