<?xml version="1.0" encoding="utf-8"?>
<!-- Generator: Adobe Illustrator 22.0.1, SVG Export Plug-In . SVG Version: 6.00 Build 0)  -->
<svg version="1.1" id="Capa_1" xmlns="http://www.w3.org/2000/svg" xmlns:xlink="http://www.w3.org/1999/xlink" x="0px" y="0px"
	 viewBox="0 0 138.4 138.8" style="enable-background:new 0 0 138.4 138.8;" xml:space="preserve">
<style type="text/css">
	.st0{fill:#FFFFFF;}
</style>
<path class="st0" d="M129.7,113.8l-13.4,13.5c-10.4,10.4-31.1,9.6-72.6-32.2C2.2,53.4,1.3,32.5,11.7,22L25.1,8.6
	c3.5-3.5,9.1-3.5,12.5,0l21.2,21.3c3.4,3.5,3.4,9.1,0,12.6l-7.4,7.4c-3.3,3.4-3.3,8.8,0,12.2L64,74.7l12.5,12.6
	c3.3,3.4,8.7,3.4,12.1,0l7.3-7.4c3.5-3.5,9.1-3.5,12.5,0l21.2,21.3C133.1,104.7,133.1,110.3,129.7,113.8z"/>
</svg>
