<?xml version="1.0" encoding="utf-8"?>
<!-- Generator: Adobe Illustrator 22.0.1, SVG Export Plug-In . SVG Version: 6.00 Build 0)  -->
<svg version="1.1" id="Capa_1" xmlns="http://www.w3.org/2000/svg" xmlns:xlink="http://www.w3.org/1999/xlink" x="0px" y="0px"
	 viewBox="0 0 896 273.4" style="enable-background:new 0 0 896 273.4;" xml:space="preserve">
<style type="text/css">
	.st0{fill:#FFFFFF;}
</style>
<g>
	<path class="st0" d="M9.9,109.4v115.7h179.5V102.7H98.9c-17.9,0-29.9,6.2-33.2,20.7h116.3v30.3H63.9v52.5H31.8V136
		c0-37.9,26.6-65.1,64.6-65.1h93V49.8h-116C32.2,51.9,9.9,68.4,9.9,109.4z"/>
	<path class="st0" d="M449.8,86.4v17.8h40.5v-7.8h-32.8v-4.8h27.7v-7h-27.4c0.9-3.7,3.9-5.2,8.4-5.2h24.1V72h-27.7
		c-2.8,0-7.4,2.9-8.9,4.7C451.7,78.9,449.8,82.5,449.8,86.4L449.8,86.4z M250.7,104.2h7.7V79.4h27c-0.3,3-2.6,5.2-5.8,5.2H262v7h8.8
		c1.6,0,10.8,11,13.1,12.6l9.1,0l-11.7-12.9h1.5c5.7,0,9.8-5.9,9.8-12.2v-7h-41.9V104.2L250.7,104.2z M211.3,84.6
		c0.4-4.7,6.5-5.2,11.7-5.2h13.9v5.2H211.3L211.3,84.6z M202.9,89.4v14.8h7.7V91.6h26.3v12.6h7.7V72h-25.5
		C207.9,72,202.9,78.2,202.9,89.4L202.9,89.4z M650,84.6c0.3-3.8,5-5.2,9.1-5.2h16.4v5.2H650L650,84.6z M641.7,89.4v14.8h7.7V91.6
		h26.2v12.6h7.7V72h-25.9C646.6,72,641.7,78.4,641.7,89.4L641.7,89.4z M366.6,84.6c0.1-4.1,4.9-5.2,9.1-5.2h16v5.2H366.6L366.6,84.6
		z M358.3,87.2v17h7.7V91.6h25.9v12.6h7.7V72h-27.4C364.1,72,358.3,78.7,358.3,87.2L358.3,87.2z M298.1,104.2h7.7V79.4h23.3
		c5.7,0,7.2,7.2,9.5,11.1c1.3,2.2,6.5,11.7,6.9,13.7h8.8c-3.2-6.1-6.1-12.4-9.2-18.7c-3-6-5.8-13.4-14.5-13.4h-32.5V104.2
		L298.1,104.2z M597.2,87.9v16.3h39.8v-7.8h-31.7V85.7c0-3.5,3.8-6.3,7.7-6.3h24.1V72h-26.3C602.7,72,597.2,79.5,597.2,87.9
		L597.2,87.9z M405.3,87.2v17h39.8v-7.8H413v-9.6c0-4,3.3-7.4,7.3-7.4h24.8V72h-26.3C411.1,72,405.3,78.9,405.3,87.2L405.3,87.2z
		 M495,104.2c7.8,0,19.7,0.7,26.5-0.5c6.9-1.2,13.1-6.1,13.2-14V72h-7.3l-0.4,17c-0.2,9.6-14.8,7.4-24.4,7.4L502.3,72H495V104.2
		L495,104.2z M539.2,84.2h6.9c0.2-2.5,2.2-4.8,4.7-4.8h6.2v24.8h7.7V79.4h14.6V72h-28.8C544,72,539.2,77.3,539.2,84.2L539.2,84.2z
		 M583.7,104.2h7.7V72h-7.7V104.2L583.7,104.2z M318.1,104.2V82.7h7.7v21.5H318.1z"/>
	<path class="st0" d="M720.4,83.8l0.8,3l2,12.9h3.9l0.6-9.2c1.2,3,2.8,6.2,3.8,8.7c1.5,3.9,4.8,8.2,7.8,10.6
		c3.5,2.8,6.6,5.3,10.4,7.9c2.8,1.9,2.3,2.6,3.1,6.1c0.3,1.2,1.5,7,1.5,7.3c0,0.4,0,0.7,0,1.1c-7.6,4.6-15.3,9.2-22.9,13.8
		c0.9,1.7,10.9,24.2,10.9,24.3c0,0.5-4.8,18.3-5.4,20.4c-1.3,4.8-4.1,16.5-4.1,21.7c0,3.5,0,6.9,0,10.4c0.5,6.8,1.1,13.6,1.6,20.3
		c1.6,0.8,3.3,1.5,4.9,2.3c0.1-4.4,10.1-20.5,12.6-24c6.8-9.4,10.8-9.6,21.1-14.8c8-4,16.2-7.8,24-11.9c1.8-0.9,5.2-9.6,6.1-11.9
		c0.7-1.7,5.5-11.9,5.5-12.5c0-0.7-8.2-14.8-8.9-15.4c-2.1-1.7-12.3-7-15.3-8.5c-5.1-2.6-10.3-5.9-15.4-8.8
		c-8.8-4.9-6.8-3.6-11.4-12.5c0.7-1.5,3.6-8.1,3.6-9.6c0-1.9-2.6-7.6-2.9-11.1c3.9-1.9,7.7-3.8,11.6-5.7c1.2,1.6,2.4,3.1,3.6,4.7
		c0.8-0.6,3.2-2.7,3.8-2.7c0.1,0,0.2,0,0.4,0c0.9,0,10.4,4.2,11.7,4.8c-0.5,3.4-0.9,6.9-1.4,10.4c0,0.4,0,0.7,0,1.1
		c1.7,0.6,3.4,1.3,5.1,1.9c0.5-3.8,1-7.7,1.5-11.5c6.6-0.6,13.1-1.3,19.7-1.9c-0.1-2.1-0.3-4.1-0.4-6.2c0-0.6,0.1-1.2,0.1-1.9
		c2.5,0.8,5.1,1.6,7.6,2.4c0-0.3,0-0.6,0-0.9c-0.6-1.3-1.3-2.7-1.9-4c1.9-0.5,3.7-1,5.6-1.5c2.6-0.7,5.1-1.5,7.7-2.2
		c0-1-0.6-8-0.8-9.2c-0.3-1.5-2.7-4.3-3.6-6c-1.2,0.1-8.6,3-9.9,3.6c-2.4,1.2-2.4,0.4-4.6,2.4c-1.1,1-2.5,2.2-3.7,2.9
		c-0.8-0.4-7.3-5.1-7.3-5.6c0,0,2-5.9,2.2-6.2c0.5-1,3.9-2.4,5.1-3c1.5-0.8,10.2-4.6,10.2-5.9c0-3.7,0-7.4,0-11.1
		c-3.5-0.8-14-7.8-16.8-7.8c-1.2,0-13.2,6.7-13.9,6.7c0,0-9.9-7-11.3-7.8c0.5-2.1,8.5-18.1,9.5-18.1c3.6,0,14.3,5.2,17.4,6.8
		c5,2.5,10,6.7,14.3,9.9c7.3,5.4,18.3,16.9,23.5,24.6c53,79.6,14.9,170.8-66.2,190.4c-24.7,6-50.4,4.4-75.2,0.2
		c-3.5-0.6-7.1-1.1-10.8-1.1c0,0.7,1.9,1.4,3.9,1.9c4.8,1.2,9.8,2.1,14.8,2.8c17.1,2.7,33.6,3,50.5,1.3c12.6-1.3,25.3-3.4,37.4-7.1
		c25.7-7.7,50-22.5,65.7-44.5c6.1-8.5,11.7-18.7,15.3-29.6c15.8-48.5,7-102.1-29.8-137.6C804.4,1.1,732.3,2,678.3,25.8
		c-10.6,4.7-21,10.3-30.5,17c3-0.7,10.6,0.3,13.9,0.7c2.5,0.3,4.2,0.8,6.2,1.5c3.5,1.1,2.4,1.5,4.7,3c3.3-5,14.6-10.7,20.9-13.2
		c4.4-1.8,21.5-7.8,26.2-7.9c1.4,2.5,4.1,3,5.7,5.3c1,1.6,2.4,6,3.3,8.1c3.8,9.7,0.1,9.1,0.1,19.1c-2,3-4,7.7-5.7,11.2
		C719.5,77.9,720.4,74.6,720.4,83.8L720.4,83.8z M579.6,225.1l0.4-32.5h21.1l0.4,32.5v-32.9h-21.9V225.1L579.6,225.1z M579.6,170.8
		h21.9v-11.1h-21.9V170.8L579.6,170.8z M579.6,225.1h-21.5l-0.1-65.5l0.9-7.4c0.8-1.3,1.4-3.8,2.4-5.7c0.9-1.7,2.4-3.4,3.9-4.5
		c2.4-1.8,8.5-4.2,12.3-4.2h45.2v87.3h-21.2v-32.9h-21.9V225.1L579.6,225.1z M526,225.1h21.5v-87.3H526V225.1L526,225.1z
		 M633.6,225.1v-86.9h21.1v65.1h43v21.8H633.6L633.6,225.1z M396.9,225.1v-65.5h21.9v65.5h21.1v-86.9h-46.7
		c-10.2,0-17.5,8.6-17.5,19.2v67.7H396.9L396.9,225.1z M300.6,225.1c12.5,0,25.1,0,37.6,0c14,0,21.6-1.6,25.3-12.4
		c2.6-7.6,1.3-61,1.3-74.5h-21.2v65.5h-21.9v-65.5h-21.2V225.1L300.6,225.1z M492.5,225.1c14.6,0,23-6.5,23-21.1v-66.2h-64.6v87.3
		H492.5L492.5,225.1z M493.6,203.3h-21.1l-0.4-43.6h21.9L493.6,203.3L493.6,203.3z M225.1,159.7h10.9v43.6h21.2v-43.6h10.9v65.5
		h21.5v-87.3h-64.9c-14.7,0-21.1,8.2-21.1,23.3v64h21.5V159.7z"/>
</g>
</svg>
